<svg id="svg" version="1.1" xmlns="http://www.w3.org/2000/svg"><path d="M429.000 400.927 C 429.000 483.413,429.014 484.000,431.006 484.000 C 432.999 484.000,433.010 483.498,432.756 401.264 C 432.515 323.379,432.397 318.508,430.750 318.190 C 429.095 317.872,429.000 322.348,429.000 400.927 M419.778 344.176 C 419.625 352.054,419.620 384.038,419.766 415.250 C 419.998 464.748,420.223 472.000,421.523 472.000 C 422.832 472.000,422.982 463.397,422.757 401.333 C 422.558 346.737,422.222 330.574,421.278 330.259 C 420.361 329.954,419.986 333.433,419.778 344.176 M273.000 400.427 C 273.000 461.412,273.019 462.000,275.008 462.000 C 276.999 462.000,277.013 461.497,276.758 400.764 C 276.516 343.356,276.391 339.506,274.750 339.190 C 273.099 338.872,273.000 342.324,273.000 400.427 M390.000 401.000 C 390.000 460.333,390.022 461.000,392.000 461.000 C 393.978 461.000,394.000 460.333,394.000 401.000 C 394.000 341.667,393.978 341.000,392.000 341.000 C 390.022 341.000,390.000 341.667,390.000 401.000 M438.781 378.250 C 438.626 393.238,438.629 415.962,438.786 428.750 C 439.027 448.367,439.301 452.000,440.536 452.000 C 441.802 452.000,442.000 445.172,442.000 401.500 C 442.000 357.750,441.804 351.000,440.531 351.000 C 439.282 351.000,439.020 355.077,438.781 378.250 M400.000 401.073 C 400.000 445.367,400.103 448.127,401.750 447.810 C 403.380 447.496,403.519 444.432,403.778 402.986 C 403.930 378.519,403.809 357.488,403.509 356.250 C 403.208 355.012,402.295 354.000,401.481 354.000 C 400.194 354.000,400.000 360.166,400.000 401.073 M292.758 356.250 C 292.024 358.259,292.691 445.691,293.449 446.918 C 295.616 450.424,296.000 443.504,296.000 400.941 C 296.000 362.339,295.777 355.000,294.607 355.000 C 293.841 355.000,293.009 355.563,292.758 356.250 M380.456 363.253 C 380.192 363.942,380.093 381.599,380.238 402.490 C 380.481 437.749,380.626 440.497,382.250 440.810 C 383.893 441.126,384.000 438.724,384.000 401.573 C 384.000 366.703,383.818 362.000,382.469 362.000 C 381.626 362.000,380.721 362.564,380.456 363.253 M516.488 364.171 C 516.206 364.907,516.093 381.926,516.237 401.991 C 516.482 435.917,516.623 438.497,518.262 438.812 C 519.923 439.132,520.009 436.994,519.762 401.409 C 519.560 372.301,519.214 363.571,518.251 363.250 C 517.563 363.021,516.770 363.436,516.488 364.171 M263.455 367.257 C 263.190 367.948,263.091 383.810,263.236 402.507 C 263.465 431.939,263.701 436.500,265.000 436.500 C 266.300 436.500,266.535 431.800,266.763 401.250 C 266.996 370.022,266.849 366.000,265.481 366.000 C 264.632 366.000,263.720 366.565,263.455 367.257 M361.688 368.646 C 361.309 369.024,361.000 383.883,361.000 401.667 C 361.000 433.406,361.037 434.000,363.014 434.000 C 364.996 434.000,365.023 433.495,364.764 401.333 C 364.512 370.207,364.135 366.198,361.688 368.646 M409.454 369.259 C 409.189 369.951,409.090 384.907,409.236 402.495 C 409.480 432.034,409.633 434.499,411.250 434.810 C 412.889 435.125,413.000 433.010,413.000 401.573 C 413.000 372.091,412.813 368.000,411.469 368.000 C 410.626 368.000,409.720 368.566,409.454 369.259 M458.454 369.259 C 458.189 369.951,458.090 384.907,458.236 402.495 C 458.480 432.034,458.633 434.499,460.250 434.810 C 461.889 435.125,462.000 433.010,462.000 401.573 C 462.000 372.091,461.813 368.000,460.469 368.000 C 459.626 368.000,458.720 368.566,458.454 369.259 M254.094 369.942 C 253.055 370.584,252.903 374.565,253.360 389.126 C 253.677 399.232,253.951 413.238,253.969 420.250 C 253.995 430.903,254.247 433.000,255.500 433.000 C 256.802 433.000,257.000 428.840,257.000 401.559 C 257.000 384.266,256.641 369.896,256.202 369.625 C 255.763 369.354,254.815 369.496,254.094 369.942 M214.485 371.178 C 214.201 371.918,214.089 385.793,214.235 402.012 C 214.463 427.439,214.707 431.500,216.000 431.500 C 217.300 431.500,217.500 427.454,217.500 401.083 C 217.500 377.646,217.213 370.571,216.251 370.250 C 215.563 370.021,214.769 370.439,214.485 371.178 M322.000 400.927 C 322.000 426.406,322.046 427.000,324.017 427.000 C 325.994 427.000,326.029 426.493,325.767 401.263 C 325.522 377.670,325.354 375.498,323.750 375.190 C 322.119 374.876,322.000 376.633,322.000 400.927 M370.587 376.859 C 370.295 377.332,370.340 388.807,370.687 402.359 C 371.190 421.979,371.592 427.000,372.659 427.000 C 373.745 427.000,374.000 422.152,374.000 401.500 C 374.000 379.964,373.776 376.000,372.559 376.000 C 371.766 376.000,370.879 376.387,370.587 376.859 M468.688 376.646 C 468.309 377.024,468.000 388.283,468.000 401.667 C 468.000 425.404,468.049 426.000,470.017 426.000 C 471.993 426.000,472.029 425.493,471.767 401.333 C 471.514 377.976,471.053 374.280,468.688 376.646 M556.233 401.167 C 556.435 420.219,556.804 426.435,557.750 426.751 C 558.728 427.076,559.000 421.605,559.000 401.583 C 559.000 379.381,558.800 376.000,557.483 376.000 C 556.160 376.000,556.000 379.219,556.233 401.167 M234.667 377.667 C 234.300 378.033,234.000 389.058,234.000 402.167 C 234.000 421.872,234.241 426.000,235.393 426.000 C 237.816 426.000,238.142 422.989,237.938 402.500 C 237.697 378.417,237.257 375.076,234.667 377.667 M283.481 378.188 C 283.195 378.934,283.082 389.884,283.231 402.522 C 283.461 422.160,283.718 425.500,285.000 425.500 C 286.292 425.500,286.500 422.176,286.500 401.583 C 286.500 383.344,286.203 377.568,285.251 377.250 C 284.563 377.021,283.767 377.443,283.481 378.188 M341.688 377.646 C 341.309 378.024,341.000 388.833,341.000 401.667 C 341.000 424.403,341.052 425.000,343.018 425.000 C 344.993 425.000,345.030 424.493,344.768 401.333 C 344.514 378.945,344.040 375.294,341.688 377.646 M497.608 386.250 C 496.686 399.052,497.020 422.128,498.159 424.278 C 500.423 428.554,501.000 423.818,501.000 400.941 C 501.000 381.396,500.750 377.000,499.637 377.000 C 498.633 377.000,498.099 379.434,497.608 386.250 M195.000 401.000 C 195.000 419.000,195.214 422.000,196.500 422.000 C 197.786 422.000,198.000 419.000,198.000 401.000 C 198.000 383.000,197.786 380.000,196.500 380.000 C 195.214 380.000,195.000 383.000,195.000 401.000 M527.000 401.500 C 527.000 419.944,527.213 423.000,528.500 423.000 C 529.787 423.000,530.000 419.944,530.000 401.500 C 530.000 383.056,529.787 380.000,528.500 380.000 C 527.213 380.000,527.000 383.056,527.000 401.500 M134.477 382.199 C 134.189 382.950,134.076 391.869,134.227 402.019 C 134.475 418.760,134.665 420.506,136.271 420.815 C 137.926 421.132,138.025 419.848,137.771 401.410 C 137.569 386.705,137.181 381.559,136.251 381.249 C 135.563 381.021,134.765 381.448,134.477 382.199 M448.688 381.646 C 448.309 382.024,448.000 391.033,448.000 401.667 C 448.000 420.401,448.063 421.000,450.021 421.000 C 451.990 421.000,452.035 420.491,451.771 401.333 C 451.516 382.817,450.974 379.359,448.688 381.646 M546.723 382.611 C 546.325 383.008,546.000 391.616,546.000 401.740 C 546.000 418.732,546.135 420.121,547.750 419.811 C 549.322 419.509,549.528 417.743,549.773 402.459 C 549.977 389.718,549.719 384.998,548.745 383.666 C 548.030 382.688,547.120 382.213,546.723 382.611 M184.442 385.290 C 184.170 386.000,184.071 393.762,184.224 402.540 C 184.456 415.937,184.741 418.500,186.000 418.500 C 187.265 418.500,187.543 415.795,187.774 401.250 C 188.012 386.195,187.849 384.000,186.492 384.000 C 185.637 384.000,184.714 384.581,184.442 385.290 M244.000 401.500 C 244.000 417.768,244.137 419.120,245.750 418.810 C 247.335 418.504,247.500 416.869,247.500 401.500 C 247.500 386.131,247.335 384.496,245.750 384.190 C 244.137 383.880,244.000 385.232,244.000 401.500 M351.226 401.159 C 351.474 416.819,351.670 418.507,353.274 418.815 C 354.926 419.132,355.029 417.964,354.774 401.841 C 354.526 386.181,354.330 384.493,352.726 384.185 C 351.074 383.868,350.971 385.036,351.226 401.159 M302.439 387.298 C 302.165 388.012,302.067 394.869,302.220 402.536 C 302.468 414.886,302.699 416.513,304.250 416.811 C 305.856 417.119,306.000 415.866,306.000 401.573 C 306.000 388.255,305.778 386.000,304.469 386.000 C 303.626 386.000,302.713 386.584,302.439 387.298 M331.754 387.750 C 331.553 388.163,331.571 394.688,331.793 402.250 C 332.114 413.186,332.483 416.000,333.598 416.000 C 334.736 416.000,335.000 413.271,335.000 401.500 C 335.000 389.542,334.747 387.000,333.559 387.000 C 332.766 387.000,331.954 387.337,331.754 387.750 M507.000 401.500 C 507.000 415.333,507.092 416.000,509.000 416.000 C 510.908 416.000,511.000 415.333,511.000 401.500 C 511.000 387.667,510.908 387.000,509.000 387.000 C 507.092 387.000,507.000 387.667,507.000 401.500 M312.221 401.238 C 312.467 412.920,312.706 414.515,314.250 414.811 C 315.847 415.117,316.000 413.962,316.000 401.573 C 316.000 388.602,315.910 388.000,313.971 388.000 C 312.020 388.000,311.953 388.512,312.221 401.238 M536.688 388.646 C 536.309 389.024,536.000 394.658,536.000 401.167 C 536.000 412.393,536.104 413.000,538.031 413.000 C 539.976 413.000,540.050 412.487,539.781 400.832 C 539.520 389.538,538.766 386.567,536.688 388.646 M155.000 401.073 C 155.000 412.033,155.161 413.116,156.750 412.812 C 158.259 412.523,158.539 411.055,158.786 402.134 C 159.060 392.248,158.340 389.000,155.878 389.000 C 155.395 389.000,155.000 394.433,155.000 401.073 M224.465 390.231 C 224.170 391.000,224.057 396.550,224.214 402.564 C 224.448 411.491,224.776 413.500,226.000 413.500 C 227.249 413.500,227.500 411.509,227.500 401.583 C 227.500 392.942,227.157 389.552,226.251 389.250 C 225.563 389.021,224.760 389.463,224.465 390.231 M576.000 400.917 C 576.000 411.102,576.241 413.000,577.532 413.000 C 578.836 413.000,579.022 411.267,578.782 401.332 C 578.583 393.094,578.132 389.541,577.250 389.248 C 576.296 388.932,576.000 391.695,576.000 400.917 M477.828 399.966 C 477.455 409.158,477.605 410.000,479.622 410.000 C 480.807 410.000,481.024 408.385,480.789 401.331 C 480.605 395.821,480.073 392.520,479.328 392.273 C 478.514 392.004,478.056 394.351,477.828 399.966 M488.000 401.500 C 488.000 409.278,488.272 411.000,489.500 411.000 C 490.728 411.000,491.000 409.278,491.000 401.500 C 491.000 393.722,490.728 392.000,489.500 392.000 C 488.272 392.000,488.000 393.722,488.000 401.500 M605.667 392.667 C 605.300 393.033,605.000 397.083,605.000 401.667 C 605.000 409.333,605.160 410.000,607.000 410.000 C 608.852 410.000,609.000 409.333,609.000 401.000 C 609.000 394.167,608.679 392.000,607.667 392.000 C 606.933 392.000,606.033 392.300,605.667 392.667 M205.000 401.500 C 205.000 409.212,205.829 411.704,207.497 409.005 C 208.555 407.292,208.859 397.760,207.933 395.324 C 206.140 390.608,205.000 393.008,205.000 401.500 M165.000 401.500 C 165.000 407.244,165.326 409.000,166.393 409.000 C 168.231 409.000,169.000 406.789,169.000 401.500 C 169.000 396.211,168.231 394.000,166.393 394.000 C 165.326 394.000,165.000 395.756,165.000 401.500 M585.415 395.362 C 585.127 396.111,585.029 399.369,585.196 402.602 C 585.437 407.260,585.863 408.550,587.250 408.814 C 588.792 409.107,589.000 408.246,589.000 401.573 C 589.000 395.439,588.709 394.000,587.469 394.000 C 586.626 394.000,585.702 394.613,585.415 395.362 M616.000 401.417 C 616.000 407.586,616.288 409.000,617.544 409.000 C 618.819 409.000,619.037 407.754,618.794 401.830 C 618.604 397.205,618.056 394.513,617.250 394.247 C 616.324 393.940,616.000 395.796,616.000 401.417 M145.204 401.670 C 145.392 405.893,145.959 408.492,146.750 408.754 C 147.671 409.058,148.000 407.304,148.000 402.083 C 148.000 396.361,147.703 395.000,146.454 395.000 C 145.185 395.000,144.961 396.193,145.204 401.670 M175.000 402.000 C 175.000 407.556,175.310 409.000,176.500 409.000 C 177.690 409.000,178.000 407.556,178.000 402.000 C 178.000 396.444,177.690 395.000,176.500 395.000 C 175.310 395.000,175.000 396.444,175.000 402.000 M566.204 401.750 C 566.581 410.347,568.402 410.178,568.796 401.509 C 569.041 396.100,568.822 395.000,567.500 395.000 C 566.173 395.000,565.958 396.121,566.204 401.750 M595.204 401.750 C 595.432 406.952,595.844 408.500,597.000 408.500 C 598.156 408.500,598.568 406.952,598.796 401.750 C 599.071 395.474,598.944 395.000,597.000 395.000 C 595.056 395.000,594.929 395.474,595.204 401.750 M625.833 395.982 C 625.650 396.522,625.652 399.672,625.839 402.982 C 626.084 407.336,626.568 409.000,627.589 409.000 C 628.669 409.000,629.000 407.360,629.000 402.000 C 629.000 396.627,628.671 395.000,627.583 395.000 C 626.804 395.000,626.017 395.442,625.833 395.982 M636.639 395.694 C 636.288 396.046,636.000 398.733,636.000 401.667 C 636.000 405.741,636.354 407.000,637.500 407.000 C 638.650 407.000,639.000 405.729,639.000 401.559 C 639.000 396.450,638.105 394.228,636.639 395.694 M666.441 396.294 C 666.133 397.097,666.020 399.947,666.190 402.627 C 666.414 406.154,666.914 407.500,668.000 407.500 C 669.957 407.500,670.194 395.898,668.251 395.250 C 667.563 395.021,666.749 395.491,666.441 396.294 M646.000 402.000 C 646.000 406.667,646.333 408.000,647.500 408.000 C 648.667 408.000,649.000 406.667,649.000 402.000 C 649.000 397.333,648.667 396.000,647.500 396.000 C 646.333 396.000,646.000 397.333,646.000 402.000 M656.639 396.694 C 656.288 397.046,656.000 399.733,656.000 402.667 C 656.000 406.741,656.354 408.000,657.500 408.000 C 658.650 408.000,659.000 406.729,659.000 402.559 C 659.000 397.450,658.105 395.228,656.639 396.694 M125.639 397.694 C 125.288 398.046,125.000 400.058,125.000 402.167 C 125.000 404.907,125.428 406.000,126.500 406.000 C 127.580 406.000,128.000 404.895,128.000 402.059 C 128.000 398.261,126.972 396.361,125.639 397.694 M676.688 398.646 C 675.737 399.597,675.821 404.772,676.798 405.375 C 678.438 406.389,680.149 404.186,679.830 401.469 C 679.502 398.674,678.005 397.329,676.688 398.646 M687.000 402.000 C 687.000 404.000,687.500 405.000,688.500 405.000 C 689.500 405.000,690.000 404.000,690.000 402.000 C 690.000 400.000,689.500 399.000,688.500 399.000 C 687.500 399.000,687.000 400.000,687.000 402.000 M83.336 401.567 C 82.502 403.739,84.618 405.782,86.133 404.267 C 87.413 402.987,86.620 400.000,85.000 400.000 C 84.415 400.000,83.667 400.705,83.336 401.567 M94.000 402.417 C 94.000 404.097,94.549 405.000,95.570 405.000 C 96.612 405.000,97.032 404.271,96.820 402.828 C 96.348 399.627,94.000 399.284,94.000 402.417 M104.000 402.500 C 104.000 404.482,104.439 405.062,105.750 404.810 C 106.713 404.624,107.500 403.585,107.500 402.500 C 107.500 401.415,106.713 400.376,105.750 400.190 C 104.439 399.938,104.000 400.518,104.000 402.500 M114.000 402.500 C 114.000 404.333,114.533 405.000,116.000 405.000 C 117.467 405.000,118.000 404.333,118.000 402.500 C 118.000 400.667,117.467 400.000,116.000 400.000 C 114.533 400.000,114.000 400.667,114.000 402.500 M697.688 400.646 C 696.272 402.061,697.073 404.000,699.073 404.000 C 700.471 404.000,701.041 403.457,700.823 402.333 C 700.466 400.492,698.759 399.574,697.688 400.646 M708.000 402.000 C 708.000 403.289,708.506 403.998,709.250 403.750 C 709.938 403.521,710.500 402.733,710.500 402.000 C 710.500 401.267,709.938 400.479,709.250 400.250 C 708.506 400.002,708.000 400.711,708.000 402.000 M718.419 401.131 C 717.567 402.510,719.524 404.412,720.913 403.554 C 721.511 403.184,722.000 402.507,722.000 402.048 C 722.000 400.718,719.129 399.982,718.419 401.131 M72.694 401.639 C 71.761 402.573,72.888 404.000,74.559 404.000 C 75.352 404.000,76.000 403.325,76.000 402.500 C 76.000 400.994,73.889 400.444,72.694 401.639 " stroke="none" fill="#FFFFFF" fill-rule="evenodd"/></svg>
